<svg width="110" height="130" viewBox="0 0 110 130" fill="none" xmlns="http://www.w3.org/2000/svg">
<g id="Utopian Takeoff Logo" clip-path="url(#clip0_4_59)">
<path id="Vector" d="M61.0996 54.9474H48.9996C48.3659 54.9474 47.8486 54.4289 47.8486 53.7935V7.24909C47.8486 1.29685 54.6089 -2.10654 59.3731 1.4429L100.605 32.1755C100.605 32.1755 91.404 33.9283 91.404 40.5233V71.1463C91.404 75.2802 88.0603 78.6252 83.9444 78.6252C79.8213 78.6252 76.4848 75.2729 76.4848 71.1463V32.8547C76.4848 28.8817 73.265 25.6755 69.3023 25.6974C65.3612 25.7193 62.1851 28.9401 62.2069 32.8912L62.2506 53.7935C62.2506 54.4289 61.7334 54.9474 61.0996 54.9474Z" fill="url(#paint0_linear_4_59)"/>
<path id="Vector_2" d="M29.4914 16.612C31.0066 15.4215 33.2212 16.4951 33.2357 18.4305L33.5126 56.9412C33.5126 60.9142 36.7324 64.1204 40.6953 64.0985C44.6364 64.0766 47.8126 60.8558 47.7907 56.9047L47.747 53.7204C47.747 53.085 48.2569 52.5592 48.898 52.5592H60.998C61.6318 52.5592 62.149 53.0777 62.149 53.7131V57.0069C62.149 69.0648 52.402 78.8369 40.3748 78.8369C28.3549 78.8369 18.6079 69.0721 18.6006 57.0215L18.5934 40.7423C18.5934 40.7423 18.5934 32.7159 8.96289 32.7159L29.4914 16.612Z" fill="url(#paint1_linear_4_59)"/>
<path id="Vector_3" d="M18.5934 46.2344V40.7423C18.5934 40.7423 18.5934 32.7159 8.96289 32.7159L29.4987 16.612C31.0139 15.4215 33.2285 16.4951 33.243 18.4305L33.5198 56.9412C33.5198 60.2788 35.8 63.0687 38.8741 63.8648C34.6053 64.7485 22.0682 65.5884 18.5934 46.2344Z" fill="url(#paint2_linear_4_59)"/>
<path id="Vector_4" d="M47.8486 53.7935V7.24909C47.8486 1.29685 54.6089 -2.10654 59.3731 1.4429L100.605 32.1755C100.605 32.1755 91.404 33.9283 91.404 40.5233V41.2463C88.5557 34.7244 82.8007 25.4491 73.4835 27.0266C72.3036 26.1794 70.8612 25.6828 69.295 25.6901C65.3539 25.712 62.1778 28.9328 62.1996 32.8839L62.2433 53.7862C62.2433 54.4216 61.7334 54.9474 61.0923 54.9474H48.9923C48.3659 54.9474 47.8486 54.4289 47.8486 53.7935Z" fill="url(#paint3_linear_4_59)"/>
<path id="Vector_5" d="M59.373 1.44289C54.6088 -2.10655 47.8485 1.30413 47.8485 7.24907V53.2457C47.783 53.3918 47.7465 53.5525 47.7465 53.7204L47.7903 56.9047C47.7975 58.6502 47.1856 60.2496 46.1512 61.4985C46.6393 67.8159 45.0876 77.1133 31.6909 77.0403C34.3499 78.2015 37.2783 78.8442 40.3598 78.8442C52.3869 78.8442 62.134 69.0721 62.134 57.0142V54.2682C62.1995 54.1221 62.2359 53.9614 62.2359 53.7935L62.1922 32.8912C62.185 31.3502 62.6658 29.9334 63.4816 28.7575C61.9956 14.494 72.8207 14.7569 78.8377 15.962L59.373 1.44289Z" fill="url(#paint4_linear_4_59)"/>
<path id="Vector_6" d="M5.25729 103.04C5.25729 103.587 5.42085 104.11 5.74798 104.61C6.07511 105.109 6.5035 105.515 7.03314 105.828C7.57839 106.141 8.17028 106.297 8.809 106.297C9.51002 106.297 10.1331 106.141 10.6783 105.828C11.2235 105.515 11.6519 105.109 11.9635 104.61C12.2906 104.11 12.4542 103.587 12.4542 103.04V92.1707H15.7955V103.11C15.7955 104.375 15.484 105.5 14.8609 106.484C14.2378 107.452 13.3966 108.218 12.3373 108.78C11.278 109.326 10.1019 109.599 8.809 109.599C7.53162 109.599 6.3633 109.326 5.30402 108.78C4.26031 108.218 3.42691 107.452 2.80381 106.484C2.1807 105.5 1.86914 104.375 1.86914 103.11V92.1707H5.25729V103.04ZM18.7131 92.1707H30.3029V95.4499H26.1202V109.412H22.7321V95.4499H18.7131V92.1707ZM31.9279 100.815C31.9279 99.6281 32.1538 98.5034 32.6056 97.4415C33.0573 96.3796 33.6804 95.4426 34.4748 94.6304C35.2849 93.8022 36.2195 93.1544 37.2788 92.6863C38.3381 92.2174 39.4675 91.983 40.667 91.983C41.8821 91.983 43.0192 92.2174 44.0785 92.6863C45.1378 93.1544 46.0724 93.8022 46.8825 94.6304C47.7081 95.4426 48.3468 96.3796 48.7985 97.4415C49.2658 98.5034 49.4995 99.6281 49.4995 100.815C49.4995 102.033 49.2658 103.173 48.7985 104.235C48.3468 105.297 47.7081 106.234 46.8825 107.046C46.0724 107.843 45.1378 108.467 44.0785 108.92C43.0192 109.373 41.8899 109.599 40.6904 109.599C39.4753 109.599 38.3381 109.373 37.2788 108.92C36.2195 108.467 35.2849 107.843 34.4748 107.046C33.6804 106.234 33.0573 105.297 32.6056 104.235C32.1538 103.173 31.9279 102.033 31.9279 100.815ZM35.4329 100.815C35.4329 101.83 35.6666 102.759 36.1339 103.603C36.6168 104.43 37.2633 105.094 38.0733 105.594C38.8834 106.078 39.7946 106.32 40.8072 106.32C41.7886 106.32 42.6688 106.078 43.4476 105.594C44.242 105.094 44.8652 104.43 45.3169 103.603C45.7686 102.759 45.9945 101.83 45.9945 100.815C45.9945 99.7684 45.7609 98.8313 45.2935 98.0039C44.8262 97.1603 44.1954 96.4965 43.4009 96.0122C42.6064 95.5127 41.7107 95.2629 40.7137 95.2629C39.7167 95.2629 38.821 95.5127 38.0266 96.0122C37.2321 96.4965 36.6012 97.1603 36.1339 98.0039C35.6666 98.8313 35.4329 99.7684 35.4329 100.815ZM58.0881 92.1707C60.2223 92.1707 61.8579 92.7016 62.9952 93.7635C64.1323 94.8101 64.7009 96.2153 64.7009 97.9805C64.7009 98.6831 64.5918 99.3937 64.3737 100.112C64.1712 100.815 63.8363 101.455 63.369 102.033C62.9172 102.611 62.3019 103.08 61.523 103.438C60.7597 103.782 59.8173 103.954 58.6957 103.954H56.2656V109.412H52.8774V92.1707H58.0881ZM58.6723 100.651C59.1864 100.651 59.6148 100.565 59.9575 100.393C60.3002 100.206 60.565 99.9794 60.752 99.7136C60.9545 99.4324 61.0946 99.1439 61.1725 98.8467C61.266 98.5502 61.3127 98.2923 61.3127 98.074C61.3127 97.9023 61.2816 97.6759 61.2193 97.3948C61.1725 97.0975 61.0635 96.801 60.8921 96.5045C60.7208 96.208 60.456 95.9575 60.0977 95.7544C59.755 95.5514 59.2876 95.4499 58.6957 95.4499H56.2656V100.651H58.6723ZM67.7325 92.1707H71.1207V109.412H67.7325V92.1707ZM73.6197 109.412L81.3772 91.4915H81.5645L89.322 109.412H85.397L80.4426 96.809L82.8961 95.122L76.9612 109.412H73.6197ZM78.9245 103.181H84.0879L85.2797 106.039H77.8725L78.9245 103.181ZM107.228 110.115L94.189 98.3084L95.1943 98.8708L95.2642 109.412H91.8294V91.4915H91.9693L104.727 103.251L103.98 102.923L103.91 92.1707H107.321V110.115H107.228Z" fill="black"/>
<path id="Vector_7" d="M21.9941 116.3V115.157H29.9529V116.3H26.616V125.795H25.331V116.3H21.9941ZM31.1316 125.795H29.7845L33.6809 115.157H35.0074L38.9039 125.795H37.5567L34.3856 116.84H34.3027L31.1316 125.795ZM31.6291 121.64H37.0593V122.783H31.6291V121.64ZM40.5567 125.795V115.157H41.8418V120.435H41.9661L46.7331 115.157H48.4118L43.9558 119.957L48.4118 125.795H46.8574L43.1682 120.85L41.8418 122.347V125.795H40.5567ZM50.0751 125.795V115.157H56.4794V116.3H51.3601V119.894H56.1478V121.037H51.3601V124.653H56.5623V125.795H50.0751ZM67.7491 120.476C67.7491 121.598 67.547 122.568 67.1429 123.385C66.7387 124.203 66.1843 124.833 65.4796 125.276C64.775 125.719 63.9701 125.941 63.0651 125.941C62.16 125.941 61.3552 125.719 60.6505 125.276C59.9458 124.833 59.3914 124.203 58.9873 123.385C58.5831 122.568 58.381 121.598 58.381 120.476C58.381 119.355 58.5831 118.385 58.9873 117.567C59.3914 116.75 59.9458 116.12 60.6505 115.677C61.3552 115.233 62.16 115.011 63.0651 115.011C63.9701 115.011 64.775 115.233 65.4796 115.677C66.1843 116.12 66.7387 116.75 67.1429 117.567C67.547 118.385 67.7491 119.355 67.7491 120.476ZM66.5056 120.476C66.5056 119.555 66.3518 118.778 66.0444 118.144C65.7404 117.51 65.3277 117.031 64.8061 116.705C64.2879 116.379 63.7076 116.217 63.0651 116.217C62.4226 116.217 61.8405 116.379 61.3189 116.705C60.8008 117.031 60.388 117.51 60.0806 118.144C59.7766 118.778 59.6246 119.555 59.6246 120.476C59.6246 121.397 59.7766 122.175 60.0806 122.809C60.388 123.442 60.8008 123.922 61.3189 124.248C61.8405 124.574 62.4226 124.736 63.0651 124.736C63.7076 124.736 64.2879 124.574 64.8061 124.248C65.3277 123.922 65.7404 123.442 66.0444 122.809C66.3518 122.175 66.5056 121.397 66.5056 120.476ZM69.9098 125.795V115.157H76.2724V116.3H71.1948V119.894H75.796V121.037H71.1948V125.795H69.9098ZM78.4732 125.795V115.157H84.8364V116.3H79.7582V119.894H84.36V121.037H79.7582V125.795H78.4732ZM92.8402 117.816C92.7783 117.29 92.5262 116.882 92.084 116.591C91.6418 116.3 91.0991 116.154 90.4566 116.154C89.9875 116.154 89.5759 116.23 89.224 116.383C88.8751 116.535 88.6019 116.745 88.4052 117.012C88.2114 117.278 88.1146 117.581 88.1146 117.92C88.1146 118.204 88.1823 118.449 88.3171 118.653C88.4555 118.854 88.631 119.022 88.8452 119.157C89.0594 119.289 89.2845 119.398 89.5191 119.484C89.7536 119.567 89.97 119.635 90.1667 119.687L91.2448 119.978C91.5209 120.051 91.8283 120.151 92.1671 120.279C92.5087 120.407 92.8351 120.582 93.1461 120.804C93.4601 121.022 93.7195 121.302 93.9234 121.645C94.1274 121.988 94.2294 122.409 94.2294 122.908C94.2294 123.482 94.0786 124.002 93.7785 124.466C93.4812 124.93 93.0456 125.299 92.4723 125.573C91.9026 125.846 91.2099 125.982 90.3947 125.982C89.6349 125.982 88.9771 125.86 88.4205 125.614C87.8676 125.368 87.4327 125.025 87.1151 124.585C86.8004 124.146 86.6226 123.635 86.5811 123.053H87.9077C87.9419 123.455 88.0767 123.787 88.312 124.051C88.5502 124.31 88.8503 124.504 89.2131 124.632C89.5795 124.757 89.9736 124.819 90.3947 124.819C90.8849 124.819 91.3257 124.739 91.7161 124.58C92.1066 124.417 92.4155 124.192 92.6435 123.905C92.8715 123.614 92.9852 123.274 92.9852 122.886C92.9852 122.534 92.8868 122.246 92.6901 122.025C92.4934 121.803 92.2341 121.623 91.9128 121.484C91.5916 121.345 91.2448 121.224 90.8711 121.12L89.5657 120.747C88.7367 120.508 88.0803 120.167 87.5966 119.723C87.1129 119.28 86.871 118.699 86.871 117.983C86.871 117.387 87.032 116.868 87.3533 116.424C87.6782 115.977 88.1131 115.631 88.6587 115.385C89.208 115.136 89.8214 115.011 90.4981 115.011C91.1822 115.011 91.7905 115.135 92.3222 115.38C92.854 115.623 93.2758 115.955 93.5869 116.378C93.9008 116.8 94.0669 117.28 94.0837 117.816H92.8402Z" fill="black"/>
</g>
<defs>
<linearGradient id="paint0_linear_4_59" x1="79.5998" y1="79.1013" x2="71.7513" y2="26.6527" gradientUnits="userSpaceOnUse">
<stop stop-color="#972A20"/>
<stop offset="1" stop-color="#361415"/>
</linearGradient>
<linearGradient id="paint1_linear_4_59" x1="25.9451" y1="44.8959" x2="51.2062" y2="52.8187" gradientUnits="userSpaceOnUse">
<stop stop-color="#972A20"/>
<stop offset="1" stop-color="#361415"/>
</linearGradient>
<linearGradient id="paint2_linear_4_59" x1="22.834" y1="21.968" x2="24.4039" y2="60.0692" gradientUnits="userSpaceOnUse">
<stop stop-color="#972A20"/>
<stop offset="1" stop-color="#361415"/>
</linearGradient>
<linearGradient id="paint3_linear_4_59" x1="86.0767" y1="50.5588" x2="54.0928" y2="28.3659" gradientUnits="userSpaceOnUse">
<stop stop-color="#972A20"/>
<stop offset="1" stop-color="#361415"/>
</linearGradient>
<linearGradient id="paint4_linear_4_59" x1="65.4632" y1="3.85731" x2="42.9955" y2="80.1016" gradientUnits="userSpaceOnUse">
<stop stop-color="#972A20"/>
<stop offset="0.1841" stop-color="#752B22"/>
<stop offset="0.4151" stop-color="#542624"/>
<stop offset="0.5352" stop-color="#492424"/>
<stop offset="0.6181" stop-color="#4F2524"/>
<stop offset="0.7491" stop-color="#612924"/>
<stop offset="0.9111" stop-color="#812B22"/>
<stop offset="1" stop-color="#972A20"/>
</linearGradient>
<clipPath id="clip0_4_59">
<rect width="110" height="130" fill="white"/>
</clipPath>
</defs>
</svg>
