<svg width="1440" height="806" viewBox="0 0 1440 806" fill="none" xmlns="http://www.w3.org/2000/svg">
<path d="M505.264 -16L98.7244 806" stroke="#B3B3B3" stroke-opacity="0.08"/>
<path d="M530.527 -16L187.814 806" stroke="#B3B3B3" stroke-opacity="0.08"/>
<path d="M555.789 -16L269.771 806" stroke="#B3B3B3" stroke-opacity="0.08"/>
<path d="M581.053 -16L346.395 806" stroke="#B3B3B3" stroke-opacity="0.08"/>
<path d="M606.316 -16L419.02 806" stroke="#B3B3B3" stroke-opacity="0.08"/>
<path d="M631.58 -16L488.678 806" stroke="#B3B3B3" stroke-opacity="0.08"/>
<path d="M656.844 -16L556.198 806" stroke="#B3B3B3" stroke-opacity="0.08"/>
<path d="M682.105 -16L622.274 806" stroke="#B3B3B3" stroke-opacity="0.08"/>
<path d="M707.369 -16L687.465 805.999" stroke="#B3B3B3" stroke-opacity="0.08"/>
<path d="M732.633 -16L752.537 805.999" stroke="#B3B3B3" stroke-opacity="0.08"/>
<path d="M757.895 -16L817.726 806" stroke="#B3B3B3" stroke-opacity="0.08"/>
<path d="M783.16 -16L883.806 806" stroke="#B3B3B3" stroke-opacity="0.08"/>
<path d="M808.42 -16L951.322 806" stroke="#B3B3B3" stroke-opacity="0.08"/>
<path d="M833.686 -16L1020.98 806" stroke="#B3B3B3" stroke-opacity="0.08"/>
<path d="M858.947 -16L1093.6 806" stroke="#B3B3B3" stroke-opacity="0.08"/>
<path d="M884.213 -16L1170.23 806" stroke="#B3B3B3" stroke-opacity="0.08"/>
<path d="M909.473 -16L1252.19 806" stroke="#B3B3B3" stroke-opacity="0.08"/>
<path d="M934.738 -16L1341.28 806" stroke="#B3B3B3" stroke-opacity="0.08"/>
<path d="M470.682 -0.0419922H969.32" stroke="#B3B3B3" stroke-opacity="0.08"/>
<path d="M467.965 4.61182H972.037" stroke="#B3B3B3" stroke-opacity="0.08"/>
<path d="M464.633 10.3208H975.372" stroke="#B3B3B3" stroke-opacity="0.08"/>
<path d="M460.578 17.2622H979.425" stroke="#B3B3B3" stroke-opacity="0.08"/>
<path d="M455.688 25.6357H984.313" stroke="#B3B3B3" stroke-opacity="0.08"/>
<path d="M449.836 35.6587H990.168" stroke="#B3B3B3" stroke-opacity="0.08"/>
<path d="M442.877 47.5767H997.127" stroke="#B3B3B3" stroke-opacity="0.08"/>
<path d="M434.656 61.6543H1005.35" stroke="#B3B3B3" stroke-opacity="0.08"/>
<path d="M425.002 78.1855H1015" stroke="#B3B3B3" stroke-opacity="0.08"/>
<path d="M413.729 97.4912H1026.27" stroke="#B3B3B3" stroke-opacity="0.08"/>
<path d="M400.631 119.92H1039.37" stroke="#B3B3B3" stroke-opacity="0.08"/>
<path d="M385.488 145.853H1054.51" stroke="#B3B3B3" stroke-opacity="0.08"/>
<path d="M368.061 175.7H1071.94" stroke="#B3B3B3" stroke-opacity="0.08"/>
<path d="M348.084 209.907H1091.92" stroke="#B3B3B3" stroke-opacity="0.08"/>
<path d="M325.285 248.954H1114.72" stroke="#B3B3B3" stroke-opacity="0.08"/>
<path d="M299.355 293.356H1140.65" stroke="#B3B3B3" stroke-opacity="0.08"/>
<path d="M269.975 343.67H1170.03" stroke="#B3B3B3" stroke-opacity="0.08"/>
<path d="M236.797 400.491H1203.21" stroke="#B3B3B3" stroke-opacity="0.08"/>
<path d="M199.443 464.453H1240.56" stroke="#B3B3B3" stroke-opacity="0.08"/>
<path d="M157.527 536.237H1282.48" stroke="#B3B3B3" stroke-opacity="0.08"/>
<path d="M110.617 616.566H1329.38" stroke="#B3B3B3" stroke-opacity="0.08"/>
<path d="M58.2695 706.215H1381.73" stroke="#B3B3B3" stroke-opacity="0.08"/>
<path d="M0 806H1440" stroke="#B3B3B3" stroke-opacity="0.08"/>
<path d="M480 -16L1.51718e-05 806" stroke="#14161F"/>
<path d="M960 -16L1440 806" stroke="#14161F"/>
</svg>
