<svg width="61" height="72" viewBox="0 0 61 72" fill="none" xmlns="http://www.w3.org/2000/svg">
<g id="Utopian Takeoff Logo" clip-path="url(#clip0_380_1476)">
<path id="Vector" d="M33.8826 30.4324H27.1726C26.8211 30.4324 26.5343 30.1452 26.5343 29.7933V4.01488C26.5343 0.718254 30.2832 -1.1667 32.9252 0.799145L55.7899 17.8203C55.7899 17.8203 50.6878 18.7911 50.6878 22.4437V39.4041C50.6878 41.6937 48.8335 43.5462 46.5511 43.5462C44.2646 43.5462 42.4144 41.6896 42.4144 39.4041V18.1965C42.4144 15.996 40.6288 14.2203 38.4313 14.2324C36.2458 14.2446 34.4845 16.0284 34.4966 18.2167L34.5209 29.7933C34.5209 30.1452 34.234 30.4324 33.8826 30.4324Z" fill="url(#paint0_linear_380_1476)"/>
<path id="Vector_2" d="M16.3542 9.20051C17.1945 8.54118 18.4225 9.13579 18.4306 10.2077L18.5841 31.5367C18.5841 33.7371 20.3697 35.5129 22.5673 35.5007C24.7528 35.4886 26.5141 33.7048 26.502 31.5165L26.4778 29.7529C26.4778 29.401 26.7605 29.1097 27.116 29.1097H33.826C34.1775 29.1097 34.4643 29.3969 34.4643 29.7488V31.5731C34.4643 38.2513 29.0592 43.6636 22.3896 43.6636C15.724 43.6636 10.3188 38.2553 10.3148 31.5812L10.3107 22.565C10.3107 22.565 10.3107 18.1196 4.97021 18.1196L16.3542 9.20051Z" fill="url(#paint1_linear_380_1476)"/>
<path id="Vector_3" d="M10.3107 25.6068V22.565C10.3107 22.565 10.3107 18.1196 4.97021 18.1196L16.3582 9.20051C17.1985 8.54118 18.4266 9.13579 18.4347 10.2077L18.5882 31.5367C18.5882 33.3852 19.8526 34.9304 21.5574 35.3713C19.1901 35.8607 12.2377 36.3259 10.3107 25.6068Z" fill="url(#paint2_linear_380_1476)"/>
<path id="Vector_4" d="M26.5343 29.7933V4.01488C26.5343 0.718254 30.2832 -1.1667 32.9252 0.799145L55.7899 17.8203C55.7899 17.8203 50.6878 18.7911 50.6878 22.4437V22.8441C49.1082 19.232 45.9168 14.0949 40.75 14.9686C40.0957 14.4994 39.2958 14.2243 38.4273 14.2284C36.2418 14.2405 34.4805 16.0243 34.4926 18.2126L34.5168 29.7893C34.5168 30.1412 34.234 30.4324 33.8785 30.4324H27.1685C26.8211 30.4324 26.5343 30.1452 26.5343 29.7933Z" fill="url(#paint3_linear_380_1476)"/>
<path id="Vector_5" d="M32.9252 0.798949C30.2832 -1.16689 26.5343 0.722099 26.5343 4.01468V29.4897C26.498 29.5706 26.4778 29.6596 26.4778 29.7527L26.502 31.5163C26.5061 32.483 26.1667 33.3688 25.5931 34.0605C25.8638 37.5594 25.0033 42.7087 17.5742 42.6683C19.0487 43.3114 20.6727 43.6674 22.3815 43.6674C29.0511 43.6674 34.4563 38.2551 34.4563 31.5769V30.056C34.4926 29.9751 34.5128 29.8862 34.5128 29.7931L34.4886 18.2165C34.4845 17.363 34.7512 16.5783 35.2036 15.927C34.3795 8.02727 40.3826 8.17289 43.7193 8.84031L32.9252 0.798949Z" fill="url(#paint4_linear_380_1476)"/>
<path id="Vector_6" d="M2.9155 57.0686C2.9155 57.3712 3.00621 57.6612 3.18761 57.9379C3.36902 58.2146 3.60658 58.4395 3.90029 58.6126C4.20266 58.7857 4.53089 58.8723 4.88509 58.8723C5.27383 58.8723 5.61935 58.7857 5.92169 58.6126C6.22406 58.4395 6.4616 58.2146 6.63438 57.9379C6.8158 57.6612 6.90649 57.3712 6.90649 57.0686V51.0485H8.75944V57.1075C8.75944 57.808 8.5867 58.431 8.24114 58.9758C7.89562 59.5122 7.42911 59.9361 6.8417 60.2476C6.25428 60.5501 5.60206 60.7014 4.88509 60.7014C4.17672 60.7014 3.52883 60.5501 2.94142 60.2476C2.36264 59.9361 1.90047 59.5122 1.55494 58.9758C1.20939 58.431 1.03662 57.808 1.03662 57.1075V51.0485H2.9155V57.0686ZM10.3774 51.0485H16.8044V52.8647H14.485V60.5978H12.6061V52.8647H10.3774V51.0485ZM17.7056 55.8361C17.7056 55.1788 17.8308 54.5559 18.0814 53.9678C18.3319 53.3796 18.6774 52.8607 19.118 52.4109C19.5672 51.9522 20.0855 51.5934 20.6729 51.3341C21.2603 51.0744 21.8866 50.9446 22.5518 50.9446C23.2256 50.9446 23.8562 51.0744 24.4436 51.3341C25.031 51.5934 25.5493 51.9522 25.9986 52.4109C26.4564 52.8607 26.8106 53.3796 27.0611 53.9678C27.3202 54.5559 27.4498 55.1788 27.4498 55.8361C27.4498 56.5108 27.3202 57.1422 27.0611 57.7304C26.8106 58.3185 26.4564 58.8375 25.9986 59.2873C25.5493 59.7286 25.031 60.0744 24.4436 60.3252C23.8562 60.576 23.2299 60.7014 22.5647 60.7014C21.891 60.7014 21.2603 60.576 20.6729 60.3252C20.0855 60.0744 19.5672 59.7286 19.118 59.2873C18.6774 58.8375 18.3319 58.3185 18.0814 57.7304C17.8308 57.1422 17.7056 56.5108 17.7056 55.8361ZM19.6492 55.8361C19.6492 56.3984 19.7788 56.9129 20.038 57.3801C20.3058 57.8384 20.6643 58.2061 21.1135 58.4827C21.5627 58.7509 22.068 58.8852 22.6295 58.8852C23.1738 58.8852 23.6619 58.7509 24.0938 58.4827C24.5343 58.2061 24.8799 57.8384 25.1304 57.3801C25.3809 56.9129 25.5062 56.3984 25.5062 55.8361C25.5062 55.2565 25.3766 54.7375 25.1174 54.2792C24.8583 53.812 24.5084 53.4444 24.0679 53.1762C23.6273 52.8995 23.1306 52.7612 22.5777 52.7612C22.0248 52.7612 21.5281 52.8995 21.0876 53.1762C20.647 53.4444 20.2971 53.812 20.038 54.2792C19.7788 54.7375 19.6492 55.2565 19.6492 55.8361ZM32.2126 51.0485C33.3961 51.0485 34.3031 51.3426 34.9338 51.9307C35.5644 52.5104 35.8797 53.2886 35.8797 54.2663C35.8797 54.6554 35.8192 55.049 35.6982 55.447C35.5859 55.8361 35.4002 56.1909 35.1411 56.5108C34.8905 56.8308 34.5494 57.0905 34.1174 57.2891C33.6941 57.4796 33.1715 57.5747 32.5495 57.5747H31.2019V60.5978H29.323V51.0485H32.2126ZM32.5366 55.7451C32.8216 55.7451 33.0592 55.6978 33.2492 55.6023C33.4393 55.4988 33.5862 55.3734 33.6898 55.2262C33.8021 55.0704 33.8798 54.9107 33.923 54.746C33.9749 54.5818 34.0008 54.439 34.0008 54.3181C34.0008 54.223 33.9835 54.0976 33.949 53.9419C33.923 53.7773 33.8626 53.613 33.7675 53.4488C33.6725 53.2846 33.5257 53.1458 33.327 53.0334C33.1369 52.9209 32.8778 52.8647 32.5495 52.8647H31.2019V55.7451H32.5366ZM37.5609 51.0485H39.4397V60.5978H37.5609V51.0485ZM40.8256 60.5978L45.1275 50.6724H45.2313L49.5332 60.5978H47.3566L44.6092 53.6175L45.9698 52.6831L42.6786 60.5978H40.8256ZM43.7673 57.1467H46.6307L47.2916 58.7295H43.184L43.7673 57.1467ZM59.4629 60.987L52.2322 54.4479L52.7896 54.7594L52.8284 60.5978H50.9237V50.6724H51.0013L58.076 57.1855L57.6616 57.0039L57.6228 51.0485H59.5146V60.987H59.4629Z" fill="white"/>
<path id="Vector_7" d="M12.1967 64.4123V63.7792H16.6101V64.4123H14.7597V69.6715H14.0471V64.4123H12.1967ZM17.2638 69.6715H16.5167L18.6775 63.7792H19.4131L21.5739 69.6715H20.8268L19.0683 64.7116H19.0223L17.2638 69.6715ZM17.5397 67.3699H20.5509V68.0029H17.5397V67.3699ZM22.4905 69.6715V63.7792H23.2031V66.7025H23.272L25.9155 63.7792H26.8465L24.3754 66.438L26.8465 69.6715H25.9845L23.9386 66.9327L23.2031 67.7615V69.6715H22.4905ZM27.7688 69.6715V63.7792H31.3203V64.4123H28.4814V66.4032H31.1364V67.0362H28.4814V69.0389H31.3663V69.6715H27.7688ZM37.5699 66.7256C37.5699 67.3469 37.4578 67.884 37.2337 68.3367C37.0096 68.7893 36.7021 69.1384 36.3113 69.3839C35.9206 69.6294 35.4743 69.7524 34.9724 69.7524C34.4705 69.7524 34.0242 69.6294 33.6334 69.3839C33.2426 69.1384 32.9352 68.7893 32.711 68.3367C32.4869 67.884 32.3748 67.3469 32.3748 66.7256C32.3748 66.1043 32.4869 65.5671 32.711 65.1145C32.9352 64.6618 33.2426 64.3128 33.6334 64.0672C34.0242 63.8217 34.4705 63.6987 34.9724 63.6987C35.4743 63.6987 35.9206 63.8217 36.3113 64.0672C36.7021 64.3128 37.0096 64.6618 37.2337 65.1145C37.4578 65.5671 37.5699 66.1043 37.5699 66.7256ZM36.8803 66.7256C36.8803 66.2155 36.795 65.7847 36.6245 65.4336C36.456 65.0829 36.2271 64.8172 35.9378 64.6368C35.6505 64.4563 35.3287 64.3666 34.9724 64.3666C34.6161 64.3666 34.2933 64.4563 34.004 64.6368C33.7167 64.8172 33.4878 65.0829 33.3173 65.4336C33.1487 65.7847 33.0644 66.2155 33.0644 66.7256C33.0644 67.2356 33.1487 67.6664 33.3173 68.0175C33.4878 68.3682 33.7167 68.634 34.004 68.8144C34.2933 68.9948 34.6161 69.0846 34.9724 69.0846C35.3287 69.0846 35.6505 68.9948 35.9378 68.8144C36.2271 68.634 36.456 68.3682 36.6245 68.0175C36.795 67.6664 36.8803 67.2356 36.8803 66.7256ZM38.7681 69.6715V63.7792H42.2964V64.4123H39.4807V66.4032H42.0322V67.0362H39.4807V69.6715H38.7681ZM43.5168 69.6715V63.7792H47.0456V64.4123H44.2295V66.4032H46.7814V67.0362H44.2295V69.6715H43.5168ZM51.484 65.2524C51.4497 64.9607 51.3099 64.7346 51.0647 64.5736C50.8195 64.4123 50.5185 64.3318 50.1622 64.3318C49.9021 64.3318 49.6738 64.3738 49.4787 64.4584C49.2852 64.5429 49.1337 64.659 49.0246 64.8066C48.9172 64.9543 48.8634 65.1221 48.8634 65.3098C48.8634 65.4672 48.901 65.6027 48.9757 65.7155C49.0525 65.8268 49.1498 65.9198 49.2686 65.9946C49.3874 66.0679 49.5122 66.1281 49.6423 66.1758C49.7724 66.222 49.8924 66.2596 50.0014 66.2883L50.5993 66.4493C50.7524 66.4897 50.9229 66.5452 51.1107 66.6163C51.3002 66.6871 51.4812 66.7842 51.6537 66.9068C51.8278 67.0277 51.9716 67.183 52.0847 67.3727C52.1978 67.5629 52.2544 67.7958 52.2544 68.0721C52.2544 68.3905 52.1708 68.6781 52.0043 68.9353C51.8395 69.1922 51.5979 69.3964 51.28 69.5481C50.9641 69.6994 50.5799 69.775 50.1279 69.775C49.7065 69.775 49.3417 69.7071 49.0331 69.5708C48.7265 69.4349 48.4853 69.2447 48.3092 69.0012C48.1347 68.7577 48.0361 68.475 48.0131 68.1526H48.7487C48.7677 68.3751 48.8424 68.5591 48.9729 68.7052C49.105 68.8487 49.2714 68.9563 49.4726 69.0271C49.6758 69.0963 49.8944 69.1307 50.1279 69.1307C50.3997 69.1307 50.6441 69.0866 50.8607 68.9984C51.0772 68.9082 51.2485 68.7836 51.3749 68.6243C51.5014 68.4633 51.5644 68.2752 51.5644 68.0604C51.5644 67.865 51.5099 67.7056 51.4008 67.5831C51.2917 67.4601 51.1479 67.3606 50.9697 67.2838C50.7916 67.2069 50.5993 67.1398 50.3921 67.0823L49.6681 66.8752C49.2084 66.743 48.8444 66.5541 48.5762 66.3085C48.308 66.063 48.1739 65.7414 48.1739 65.3446C48.1739 65.0145 48.2631 64.727 48.4413 64.4814C48.6215 64.2339 48.8626 64.0421 49.1652 63.9058C49.4698 63.7679 49.8099 63.6987 50.1852 63.6987C50.5646 63.6987 50.9019 63.7671 51.1968 63.903C51.4917 64.0373 51.7256 64.2213 51.8981 64.4555C52.0722 64.6893 52.1643 64.9551 52.1736 65.2524H51.484Z" fill="white"/>
</g>
<defs>
<linearGradient id="paint0_linear_380_1476" x1="44.1418" y1="43.81" x2="39.8002" y2="14.7599" gradientUnits="userSpaceOnUse">
<stop stop-color="#972A20"/>
<stop offset="1" stop-color="#361415"/>
</linearGradient>
<linearGradient id="paint1_linear_380_1476" x1="14.3876" y1="24.8655" x2="28.3929" y2="29.2635" gradientUnits="userSpaceOnUse">
<stop stop-color="#972A20"/>
<stop offset="1" stop-color="#361415"/>
</linearGradient>
<linearGradient id="paint2_linear_380_1476" x1="12.6624" y1="12.1669" x2="13.5307" y2="33.2692" gradientUnits="userSpaceOnUse">
<stop stop-color="#972A20"/>
<stop offset="1" stop-color="#361415"/>
</linearGradient>
<linearGradient id="paint3_linear_380_1476" x1="47.7335" y1="28.0018" x2="30.0115" y2="15.6894" gradientUnits="userSpaceOnUse">
<stop stop-color="#972A20"/>
<stop offset="1" stop-color="#361415"/>
</linearGradient>
<linearGradient id="paint4_linear_380_1476" x1="36.3025" y1="2.13617" x2="23.872" y2="44.3723" gradientUnits="userSpaceOnUse">
<stop stop-color="#972A20"/>
<stop offset="0.1841" stop-color="#752B22"/>
<stop offset="0.4151" stop-color="#542624"/>
<stop offset="0.5352" stop-color="#492424"/>
<stop offset="0.6181" stop-color="#4F2524"/>
<stop offset="0.7491" stop-color="#612924"/>
<stop offset="0.9111" stop-color="#812B22"/>
<stop offset="1" stop-color="#972A20"/>
</linearGradient>
<clipPath id="clip0_380_1476">
<rect width="61" height="72" fill="white"/>
</clipPath>
</defs>
</svg>
