<svg width="94" height="110" viewBox="0 0 94 110" fill="none" xmlns="http://www.w3.org/2000/svg">
  <path d="M52.1944 46.7747H41.9298C41.3921 46.7747 40.9534 46.3359 40.9534 45.7983V6.41459C40.9534 1.37809 46.6882 -1.50169 50.7298 1.50168L85.7073 27.5062C85.7073 27.5062 77.9022 28.9893 77.9022 34.5696V60.4814C77.9022 63.9792 75.0657 66.8095 71.5742 66.8095C68.0764 66.8095 65.2461 63.973 65.2461 60.4814V28.0809C65.2461 24.7191 62.5146 22.0062 59.1528 22.0247C55.8096 22.0432 53.1152 24.7685 53.1337 28.1118L53.1708 45.7983C53.1708 46.3359 52.732 46.7747 52.1944 46.7747Z" fill="url(#paint0_linear_2060_165)"/>
  <path d="M25.3804 14.337C26.6658 13.3297 28.5445 14.2381 28.5568 15.8758L28.7917 48.4617C28.7917 51.8235 31.5231 54.5364 34.8849 54.5179C38.2282 54.4994 40.9226 51.7741 40.904 48.4308L40.8669 45.7364C40.8669 45.1988 41.2995 44.7539 41.8433 44.7539H52.108C52.6456 44.7539 53.0844 45.1926 53.0844 45.7303V48.5173C53.0844 58.7201 44.8158 66.9886 34.613 66.9886C24.4164 66.9886 16.1478 58.7263 16.1417 48.5297L16.1355 34.755C16.1355 34.755 16.1355 27.9634 7.96582 27.9634L25.3804 14.337Z" fill="url(#paint1_linear_2060_165)"/>
  <path d="M16.1355 39.4022V34.755C16.1355 34.755 16.1355 27.9634 7.96582 27.9634L25.3866 14.337C26.672 13.3297 28.5506 14.2381 28.563 15.8758L28.7978 48.4617C28.7978 51.2859 30.7321 53.6466 33.34 54.3201C29.7186 55.0679 19.0832 55.7786 16.1355 39.4022Z" fill="url(#paint2_linear_2060_165)"/>
  <path d="M40.9534 45.7983V6.41459C40.9534 1.37809 46.6882 -1.50169 50.7298 1.50168L85.7073 27.5062C85.7073 27.5062 77.9022 28.9893 77.9022 34.5696V35.1814C75.486 29.6629 70.6039 21.8146 62.7 23.1494C61.6989 22.4326 60.4753 22.0123 59.1466 22.0185C55.8034 22.0371 53.109 24.7623 53.1275 28.1056L53.1646 45.7921C53.1646 46.3298 52.732 46.7747 52.1882 46.7747H41.9236C41.3921 46.7747 40.9534 46.3359 40.9534 45.7983Z" fill="url(#paint3_linear_2060_165)"/>
  <path d="M50.73 1.50161C46.6884 -1.50176 40.9536 1.3842 40.9536 6.41451V45.3347C40.8979 45.4583 40.867 45.5943 40.867 45.7364L40.9041 48.4308C40.9103 49.9078 40.3912 51.2611 39.5137 52.3179C39.9277 57.6634 38.6114 65.5303 27.2468 65.4685C29.5024 66.451 31.9867 66.9949 34.6008 66.9949C44.8036 66.9949 53.0721 58.7263 53.0721 48.5235V46.1999C53.1277 46.0763 53.1586 45.9404 53.1586 45.7982L53.1215 28.1117C53.1154 26.8078 53.5232 25.6089 54.2154 24.614C52.9547 12.5448 62.1376 12.7673 67.2421 13.787L50.73 1.50161Z" fill="url(#paint4_linear_2060_165)"/>
  <path d="M4.82269 87.469C4.82269 87.9312 4.96145 88.3737 5.23896 88.797C5.51647 89.2197 5.87987 89.5633 6.32916 89.8278C6.79171 90.0917 7.29388 90.2239 7.83566 90.2239C8.43034 90.2239 8.9589 90.0917 9.42145 89.8278C9.88395 89.5633 10.2473 89.2197 10.5116 88.797C10.7892 88.3737 10.9279 87.9312 10.9279 87.469V78.271H13.7625V87.5283C13.7625 88.5986 13.4982 89.5497 12.9696 90.3827C12.441 91.2016 11.7274 91.8492 10.8288 92.3251C9.93017 92.7879 8.93251 93.019 7.83566 93.019C6.75204 93.019 5.76094 92.7879 4.86234 92.3251C3.97695 91.8492 3.26996 91.2016 2.74137 90.3827C2.21278 89.5497 1.94849 88.5986 1.94849 87.5283V78.271H4.82269V87.469ZM16.2374 78.271H26.0692V81.0463H22.521V92.8602H19.6469V81.0463H16.2374V78.271ZM27.4478 85.5854C27.4478 84.5812 27.6394 83.6301 28.0226 82.7309C28.4058 81.8324 28.9345 81.0395 29.6084 80.3524C30.2956 79.6522 31.0884 79.104 31.987 78.7073C32.8857 78.3106 33.8437 78.1128 34.8612 78.1128C35.892 78.1128 36.8567 78.3106 37.7553 78.7073C38.6539 79.104 39.4468 79.6522 40.1339 80.3524C40.8343 81.0395 41.3761 81.8324 41.7594 82.7309C42.1558 83.6301 42.354 84.5812 42.354 85.5854C42.354 86.6162 42.1558 87.5808 41.7594 88.4794C41.3761 89.3779 40.8343 90.1714 40.1339 90.858C39.4468 91.5322 38.6539 92.0606 37.7553 92.4443C36.8567 92.8275 35.8986 93.019 34.8811 93.019C33.8504 93.019 32.8857 92.8275 31.987 92.4443C31.0884 92.0606 30.2956 91.5322 29.6084 90.858C28.9345 90.1714 28.4058 89.3779 28.0226 88.4794C27.6394 87.5808 27.4478 86.6162 27.4478 85.5854ZM30.4211 85.5854C30.4211 86.4444 30.6193 87.2311 31.0157 87.9442C31.4254 88.645 31.9739 89.2061 32.661 89.6294C33.3482 90.0392 34.1212 90.2437 34.9802 90.2437C35.8127 90.2437 36.5594 90.0392 37.2201 89.6294C37.894 89.2061 38.4226 88.645 38.8059 87.9442C39.1891 87.2311 39.3807 86.4444 39.3807 85.5854C39.3807 84.7004 39.1825 83.9076 38.786 83.2068C38.3896 82.493 37.8544 81.9319 37.1804 81.5222C36.5065 81.0989 35.7467 80.8875 34.9009 80.8875C34.0551 80.8875 33.2953 81.0989 32.6214 81.5222C31.9474 81.9319 31.4122 82.493 31.0157 83.2068C30.6193 83.9076 30.4211 84.7004 30.4211 85.5854ZM49.6399 78.271C51.4503 78.271 52.8379 78.7203 53.8026 79.6188C54.7672 80.5044 55.2496 81.694 55.2496 83.187C55.2496 83.7815 55.157 84.3828 54.972 84.9909C54.8003 85.5854 54.5161 86.1274 54.1197 86.6162C53.7365 87.105 53.2145 87.5017 52.5537 87.8058C51.9062 88.0962 51.1068 88.2415 50.1553 88.2415H48.0937V92.8602H45.2196V78.271H49.6399ZM50.1355 85.447C50.5715 85.447 50.935 85.374 51.2257 85.2288C51.5164 85.07 51.7411 84.8784 51.8996 84.6541C52.0714 84.4162 52.1903 84.1715 52.2564 83.9206C52.3357 83.6697 52.3753 83.4515 52.3753 83.2661C52.3753 83.1209 52.3489 82.9293 52.2961 82.6914C52.2564 82.4405 52.1639 82.1896 52.0186 81.9381C51.8732 81.6872 51.6485 81.4758 51.3446 81.304C51.0539 81.1322 50.6574 81.0463 50.1553 81.0463H48.0937V85.447H50.1355ZM57.8213 78.271H60.6955V92.8602H57.8213V78.271ZM62.8156 92.8602L69.3964 77.6963H69.5552L76.1361 92.8602H72.8058L68.6036 82.1958L70.6849 80.7689L65.6502 92.8602H62.8156ZM67.3151 87.5876H71.6959L72.7069 90.0058H66.4233L67.3151 87.5876ZM91.326 93.4547L80.2648 83.4645L81.117 83.9403L81.1769 92.8602H78.2632V77.6963H78.3818L89.2044 87.647L88.5704 87.3695L88.5111 78.271H91.4051V93.4547H91.326Z" fill="white"/>
  <path d="M19.0204 98.6887V97.7216H25.7719V98.6887H22.9411V106.724H21.8511V98.6887H19.0204ZM26.7719 106.724H25.629L28.9345 97.7216H30.0597L33.3651 106.724H32.2223L29.5322 99.1454H29.4619L26.7719 106.724ZM27.1938 103.207H31.8003V104.174H27.1938V103.207ZM34.7673 106.724V97.7216H35.8574V102.187H35.9629L40.0068 97.7216H41.4309L37.6508 101.783L41.4309 106.724H40.1123L36.9826 102.539L35.8574 103.805V106.724H34.7673ZM42.8419 106.724V97.7216H48.2748V98.6887H43.932V101.73H47.9934V102.697H43.932V105.757H48.3451V106.724H42.8419ZM57.835 102.222C57.835 103.172 57.6636 103.992 57.3207 104.684C56.9779 105.376 56.5075 105.909 55.9097 106.284C55.312 106.659 54.6292 106.847 53.8615 106.847C53.0937 106.847 52.4109 106.659 51.8131 106.284C51.2153 105.909 50.745 105.376 50.4021 104.684C50.0593 103.992 49.8879 103.172 49.8879 102.222C49.8879 101.273 50.0593 100.452 50.4021 99.7609C50.745 99.0694 51.2153 98.5361 51.8131 98.161C52.4109 97.7859 53.0937 97.5986 53.8615 97.5986C54.6292 97.5986 55.312 97.7859 55.9097 98.161C56.5075 98.5361 56.9779 99.0694 57.3207 99.7609C57.6636 100.452 57.835 101.273 57.835 102.222ZM56.78 102.222C56.78 101.443 56.6497 100.785 56.3889 100.249C56.131 99.7127 55.7808 99.3067 55.3383 99.0311C54.8988 98.7561 54.4065 98.6183 53.8615 98.6183C53.3164 98.6183 52.8226 98.7561 52.3802 99.0311C51.9406 99.3067 51.5904 99.7127 51.3296 100.249C51.0717 100.785 50.9428 101.443 50.9428 102.222C50.9428 103.002 51.0717 103.66 51.3296 104.196C51.5904 104.733 51.9406 105.138 52.3802 105.414C52.8226 105.689 53.3164 105.827 53.8615 105.827C54.4065 105.827 54.8988 105.689 55.3383 105.414C55.7808 105.138 56.131 104.733 56.3889 104.196C56.6497 103.66 56.78 103.002 56.78 102.222ZM59.6679 106.724V97.7216H65.0656V98.6887H60.758V101.73H64.6615V102.697H60.758V106.724H59.6679ZM66.9325 106.724V97.7216H72.3306V98.6887H68.0227V101.73H71.9258V102.697H68.0227V106.724H66.9325ZM79.1203 99.9723C79.0678 99.5267 78.8533 99.1806 78.4788 98.9347C78.1037 98.6887 77.6433 98.5651 77.0983 98.5651C76.6997 98.5651 76.3511 98.63 76.052 98.7586C75.756 98.8877 75.5249 99.0651 75.3574 99.2906C75.1937 99.5162 75.1115 99.7727 75.1115 100.06C75.1115 100.3 75.169 100.507 75.2833 100.68C75.4001 100.85 75.5496 100.992 75.7313 101.106C75.913 101.218 76.1033 101.31 76.3029 101.383C76.5019 101.454 76.6855 101.51 76.8523 101.554L77.7663 101.8C78.0011 101.862 78.2619 101.947 78.5487 102.055C78.8391 102.164 79.116 102.312 79.3799 102.499C79.6462 102.684 79.8662 102.921 80.0392 103.212C80.2117 103.502 80.2982 103.858 80.2982 104.28C80.2982 104.766 80.1709 105.205 79.9156 105.598C79.6641 105.991 79.2946 106.303 78.8082 106.535C78.325 106.766 77.7373 106.882 77.0458 106.882C76.4012 106.882 75.8425 106.777 75.371 106.57C74.902 106.362 74.5331 106.072 74.263 105.699C73.9967 105.327 73.8459 104.895 73.8106 104.403H74.936C74.965 104.742 75.0793 105.024 75.2783 105.247C75.481 105.467 75.7356 105.63 76.0434 105.739C76.3542 105.844 76.6879 105.897 77.0458 105.897C77.4617 105.897 77.8355 105.829 78.1668 105.695C78.4974 105.558 78.76 105.367 78.9535 105.124C79.1469 104.877 79.2433 104.59 79.2433 104.262C79.2433 103.963 79.1599 103.72 78.993 103.532C78.8255 103.345 78.6061 103.193 78.3336 103.075C78.0611 102.958 77.7663 102.856 77.4499 102.767L76.3425 102.451C75.6392 102.249 75.0824 101.96 74.6721 101.585C74.2618 101.21 74.0566 100.719 74.0566 100.113C74.0566 99.6089 74.1932 99.1689 74.4657 98.7938C74.7407 98.4162 75.1103 98.1227 75.5731 97.915C76.0391 97.7037 76.5594 97.5986 77.1335 97.5986C77.7138 97.5986 78.2292 97.7024 78.6809 97.9107C79.132 98.1159 79.4892 98.3971 79.7531 98.7542C80.0201 99.1121 80.1604 99.5181 80.1752 99.9723H79.1203Z" fill="white"/>
  <defs>
    <linearGradient id="paint0_linear_2060_165" x1="67.8879" y1="67.2131" x2="61.2635" y2="22.8281" gradientUnits="userSpaceOnUse">
      <stop stop-color="#972A20"/>
      <stop offset="1" stop-color="#361415"/>
    </linearGradient>
    <linearGradient id="paint1_linear_2060_165" x1="22.3721" y1="38.2696" x2="43.7916" y2="45.0046" gradientUnits="userSpaceOnUse">
      <stop stop-color="#972A20"/>
      <stop offset="1" stop-color="#361415"/>
    </linearGradient>
    <linearGradient id="paint2_linear_2060_165" x1="19.7329" y1="18.869" x2="21.0579" y2="51.1088" gradientUnits="userSpaceOnUse">
      <stop stop-color="#972A20"/>
      <stop offset="1" stop-color="#361415"/>
    </linearGradient>
    <linearGradient id="paint3_linear_2060_165" x1="73.383" y1="43.0612" x2="46.2954" y2="24.2179" gradientUnits="userSpaceOnUse">
      <stop stop-color="#972A20"/>
      <stop offset="1" stop-color="#361415"/>
    </linearGradient>
    <linearGradient id="paint4_linear_2060_165" x1="55.8963" y1="3.54458" x2="36.9259" y2="68.0856" gradientUnits="userSpaceOnUse">
      <stop stop-color="#972A20"/>
      <stop offset="0.1841" stop-color="#752B22"/>
      <stop offset="0.4151" stop-color="#542624"/>
      <stop offset="0.5352" stop-color="#492424"/>
      <stop offset="0.6181" stop-color="#4F2524"/>
      <stop offset="0.7491" stop-color="#612924"/>
      <stop offset="0.9111" stop-color="#812B22"/>
      <stop offset="1" stop-color="#972A20"/>
    </linearGradient>
  </defs>
</svg>
